<?xml version="1.0" encoding="utf-8"?>
<!-- Generator: Adobe Illustrator 22.1.0, SVG Export Plug-In . SVG Version: 6.00 Build 0)  -->
<svg version="1.1" id="Warstwa_1" xmlns="http://www.w3.org/2000/svg" xmlns:xlink="http://www.w3.org/1999/xlink" x="0px" y="0px"
	 viewBox="0 0 24 24" style="enable-background:new 0 0 24 24;" xml:space="preserve">
<style type="text/css">
	.st0{fill:#AE9473;}
</style>
<path class="st0" d="M21.8,3.3H2.3C1.8,3.3,1.5,3.6,1.5,4v11.6c0,0.4,0.3,0.8,0.8,0.8h8.9V19h-4c-0.2,0-0.4,0.2-0.4,0.4v1.1
	c0,0.1,0.1,0.2,0.2,0.2h10.1c0.1,0,0.2-0.1,0.2-0.2v-1.1c0-0.2-0.2-0.4-0.4-0.4h-4v-2.6h8.9c0.4,0,0.8-0.3,0.8-0.8V4
	C22.5,3.6,22.2,3.3,21.8,3.3z M20.8,14.7H3.2V5h17.6V14.7z"/>
</svg>
